<svg id="Layer_1" enable-background="new 0 0 511.905 511.905" height="20" viewBox="0 0 511.905 511.905" width="20" fill="#313746" xmlns="http://www.w3.org/2000/svg"><path d="m511.905 265.929c0-35.276-23.42-65.69-56.26-75.438-4.372-58.342-53.241-104.472-112.682-104.472-17.448 0-34.404 3.958-49.821 11.552-10.081-15.702-23.447-29.111-39.273-39.292-20.976-13.495-45.301-20.627-70.344-20.627-34.559 0-67.111 13.394-91.659 37.715-22.22 22.013-35.554 50.668-38.125 81.523-14.425 7.46-26.793 18.326-36.134 31.823-11.519 16.643-17.607 36.175-17.607 56.482 0 46.493 32.06 85.633 75.231 96.49-17.668 13.672-28.658 35.011-28.658 58.542 0 40.82 33.209 74.029 74.029 74.029h260.593c46.275 0 84.021-37.205 84.14-82.935.047-17.874-5.512-34.672-15.346-48.471 35.359-7.734 61.916-39.276 61.916-76.921zm-130.711 178.326h-260.592c-24.277 0-44.029-19.751-44.029-44.029 0-20.317 13.76-37.895 33.462-42.744l13.276-3.268-2.027-13.521c-.484-3.23-.73-6.517-.73-9.767 0-35.962 29.257-65.219 65.22-65.219 16.573 0 32.376 6.238 44.5 17.565l12.098 11.303 10.058-13.152c14.898-19.482 37.479-30.655 61.951-30.655 42.563 0 77.537 34.62 77.964 77.174l.101 10.069 9.357 3.72c20.427 8.121 33.589 27.555 33.531 49.51-.076 29.232-24.363 53.014-54.14 53.014zm51.96-129.575h-11.728c-3.067-23.688-13.831-45.578-31.061-62.646-20.35-20.162-47.335-31.265-75.984-31.265-28.761 0-55.631 11.138-75.709 30.987-15.563-10.428-33.883-16.049-52.897-16.049-46.825 0-85.861 33.974-93.76 78.566-34.814-3.74-62.015-33.288-62.015-69.078 0-28.618 17.205-53.949 43.831-64.534l9.357-3.72.102-10.068c.267-26.562 10.812-51.491 29.692-70.196 18.893-18.718 43.947-29.026 70.545-29.026 19.275 0 37.987 5.483 54.112 15.857 15.721 10.114 28.288 24.354 36.343 41.182l7.574 15.823 14.455-9.938c13.849-9.522 30.085-14.555 46.955-14.555 45.767 0 83 37.234 83 83 0 .918-.021 1.912-.065 3.128l-.507 13.785 13.694 1.658c24.412 2.955 42.82 23.737 42.82 48.34-.003 26.88-21.872 48.749-48.754 48.749z"/></svg>