<svg id="Capa_1" enable-background="new 0 0 512 512" height="20" viewBox="0 0 512 512" width="20" fill="#313746" xmlns="http://www.w3.org/2000/svg"><g><path d="m497 342h-106.838c-7.486-67.406-64.793-120-134.162-120s-126.676 52.594-134.162 120h-106.838c-8.284 0-15 6.716-15 15s6.716 15 15 15h482c8.284 0 15-6.716 15-15s-6.716-15-15-15zm-344.924 0c7.301-50.817 51.119-90 103.924-90s96.623 39.183 103.924 90z"/><path d="m446 412h-380c-8.284 0-15 6.716-15 15s6.716 15 15 15h380c8.284 0 15-6.716 15-15s-6.716-15-15-15z"/><path d="m396 482h-280c-8.284 0-15 6.716-15 15s6.716 15 15 15h280c8.284 0 15-6.716 15-15s-6.716-15-15-15z"/><path d="m75.688 176.688c-5.858 5.858-5.858 15.355 0 21.213l42.427 42.427c5.858 5.858 15.355 5.858 21.213 0s5.858-15.355 0-21.213l-42.428-42.427c-5.857-5.858-15.355-5.858-21.212 0z"/><path d="m393.886 240.327 42.427-42.427c5.858-5.858 5.858-15.355 0-21.213s-15.355-5.858-21.213 0l-42.427 42.427c-5.858 5.858-5.858 15.355 0 21.213s15.355 5.858 21.213 0z"/><path d="m256 192c8.285 0 15-6.716 15-15v-60c0-8.284-6.716-15-15-15-8.284 0-15 6.716-15 15v60c0 8.284 6.716 15 15 15z"/><path d="m173.259 196.443c3.17 7.654 11.944 11.288 19.598 8.118h.001c7.654-3.17 11.288-11.944 8.118-19.598l-11.481-27.718c-3.17-7.654-11.944-11.288-19.598-8.118h-.001c-7.654 3.17-11.288 11.944-8.118 19.598z"/><path d="m67.725 262.778c-7.654-3.17-16.428.464-19.598 8.118v.001c-3.17 7.654.464 16.428 8.118 19.598l27.718 11.481c7.654 3.17 16.428-.464 19.598-8.118v-.001c3.17-7.654-.464-16.428-8.118-19.598z"/><path d="m408.439 293.857c3.171 7.654 11.945 11.289 19.598 8.119l27.718-11.481c7.653-3.17 11.288-11.944 8.118-19.598v-.001c-3.17-7.654-11.945-11.288-19.598-8.118l-27.718 11.481c-7.653 3.17-11.288 11.944-8.118 19.598z"/><path d="m319.142 204.56c7.654 3.171 16.429-.464 19.599-8.118l11.481-27.718c3.17-7.654-.465-16.428-8.118-19.598h-.001c-7.653-3.17-16.428.464-19.598 8.118l-11.481 27.718c-3.17 7.654.465 16.428 8.118 19.598z"/><path d="m44.394 145.606c5.858 5.858 15.355 5.858 21.213 0l40-40c5.858-5.858 5.858-15.355 0-21.213s-15.355-5.858-21.213 0l-14.394 14.394v-83.787c0-8.284-6.716-15-15-15s-15 6.716-15 15v83.787l-14.394-14.393c-5.858-5.858-15.355-5.858-21.213 0s-5.858 15.355 0 21.213z"/></g></svg>